<svg width="82" height="97" viewBox="0 0 82 97" fill="none" xmlns="http://www.w3.org/2000/svg">
<path d="M63.5117 83.1047L40.8 96.4595L0 72.4595V24.4595H55.1052C57.3725 24.4595 59.2118 24.8227 60.6231 25.5487C62.0345 26.2748 63.0872 27.2359 63.7812 28.4319C64.4753 29.6279 64.8456 30.9839 64.8918 32.5002C64.9381 34.0166 64.753 35.5436 64.3365 37.0812C63.9664 38.448 63.3879 39.7936 62.6014 41.1176C61.8147 42.4417 60.8892 43.6591 59.825 44.7696C58.7607 45.8801 57.5692 46.8413 56.2504 47.6528C54.9316 48.4643 53.5551 49.0409 52.1206 49.3826L60.9355 63.4779C49.7607 63.4779 49.7607 63.4779 40.5894 49.3826V49.4415L36.3647 42.9757H50.1772C50.6399 42.9757 51.1488 42.7621 51.7041 42.3349C52.2594 41.9079 52.78 41.4059 53.2657 40.8294C53.7516 40.2527 54.1797 39.6654 54.5499 39.0673C54.92 38.4694 55.1514 37.9995 55.244 37.6579C55.3828 37.2308 55.4753 36.6862 55.5215 36.0241C55.5679 35.362 55.5332 34.7321 55.4176 34.134C55.3017 33.5361 55.0704 33.0235 54.7234 32.5964C54.3764 32.1693 53.8558 31.9557 53.1616 31.9557H5.84567V69.0506C17.4974 75.9046 29.1483 82.7447 40.8 89.5986L42.7445 88.5253C51.9771 83.1047 51.9771 83.1047 63.5117 83.1047H63.5117ZM36.3128 34.0818L28.0148 65.604H75.7544V27.8683L40.8 7.32031L38.8556 8.3936C32.8967 11.8892 32.8967 11.8892 21.3621 11.8892L40.8 0.459473L81.6 24.4595L81.6 72.4595L69.9593 72.4594H16.7012L23.1786 48.177C26.8734 34.0818 26.8734 34.0818 36.3128 34.0818L36.3128 34.0818ZM35.5238 79.9465C35.4926 80.0548 35.4738 80.1839 35.4675 80.3337C35.4613 80.4834 35.5238 80.6316 35.6552 80.7782L35.6177 80.9311C35.4863 80.9502 35.3612 80.9646 35.2424 80.9741C35.1235 80.9837 35.0047 80.9853 34.8858 80.9789C34.6981 80.9726 34.5293 80.9455 34.3791 80.8976C34.2291 80.8498 34.1102 80.7702 34.0226 80.6587C33.935 80.5471 33.8819 80.3989 33.8631 80.2142C33.8443 80.0293 33.8694 79.7967 33.9382 79.5163L34.8295 76.1322C34.8483 76.0748 34.864 76.0031 34.8765 75.9171C34.8889 75.831 34.8983 75.7434 34.9046 75.6542C34.9108 75.5649 34.9124 75.4789 34.9093 75.3961C34.9062 75.3132 34.8921 75.2463 34.8671 75.1953C34.817 75.0997 34.7389 75.0646 34.6325 75.0902L34.595 75.0137C34.7263 74.9117 34.8765 74.832 35.0453 74.7747C35.2142 74.7173 35.3769 74.6886 35.5333 74.6886C35.7647 74.6886 35.9539 74.7428 36.1009 74.8511C36.2479 74.9595 36.3558 75.0981 36.4246 75.267C36.4934 75.4359 36.5294 75.6223 36.5325 75.8262C36.5356 76.0302 36.5122 76.2277 36.4621 76.419L35.5238 79.9464V79.9465ZM18.5024 20.3608C18.5917 20.3673 18.6825 20.3153 18.7749 20.2049C18.8673 20.0946 18.9533 19.9517 19.033 19.7764C19.1127 19.6011 19.186 19.403 19.2529 19.1823C19.3198 18.9615 19.3692 18.744 19.4011 18.5297C19.4266 18.3803 19.4409 18.2326 19.4441 18.0866C19.4473 17.9404 19.4393 17.8105 19.4202 17.697C19.4011 17.5833 19.3661 17.4957 19.3151 17.4339C19.2641 17.3723 19.1971 17.3512 19.1143 17.3706L19.076 17.2927C19.2226 17.1823 19.39 17.0946 19.5779 17.0297C19.766 16.9648 19.946 16.9323 20.1181 16.9323C20.3539 16.9323 20.5435 16.9875 20.6868 17.0979C20.8303 17.2083 20.9354 17.3495 21.0024 17.5216C21.0693 17.6937 21.1027 17.8836 21.1027 18.0914C21.1027 18.2992 21.0772 18.5005 21.0262 18.6953C20.9689 18.9031 20.8924 19.1254 20.7968 19.3624C20.7012 19.5995 20.5626 19.8202 20.3809 20.0248C20.1993 20.2293 19.9651 20.3997 19.6783 20.5361C19.3915 20.6725 19.0314 20.7407 18.5981 20.7407C18.3941 20.7407 18.2013 20.7277 18.0197 20.7017C17.838 20.6757 17.6692 20.627 17.513 20.5556C17.3569 20.4841 17.2119 20.3852 17.0781 20.2585C16.9443 20.1319 16.8295 19.9679 16.7339 19.7667C16.6256 19.5524 16.5491 19.3138 16.5045 19.0507C16.4599 18.7878 16.4391 18.5118 16.4423 18.2229C16.4455 17.9339 16.4742 17.6368 16.5284 17.3316C16.5825 17.0264 16.6575 16.7213 16.7531 16.4161C16.8933 15.9875 17.0733 15.5768 17.2932 15.184C17.513 14.7911 17.7664 14.4437 18.0532 14.1417C18.34 13.8398 18.657 13.5996 19.0044 13.421C19.3517 13.2424 19.723 13.1531 20.1181 13.1531C20.3093 13.1531 20.4941 13.1823 20.6726 13.2408C20.851 13.2992 21.0151 13.3853 21.1649 13.4989C21.3147 13.6126 21.4389 13.7521 21.5377 13.9177C21.6365 14.0833 21.7018 14.27 21.7337 14.4777C21.6381 14.6466 21.525 14.7651 21.3943 14.8333C21.2636 14.9014 21.1298 14.9307 20.9928 14.9209C20.8558 14.9112 20.7156 14.8722 20.5721 14.804C20.4288 14.7359 20.2933 14.6498 20.1659 14.5459C20.236 14.1953 20.2615 13.9404 20.2424 13.7813C20.2232 13.6222 20.1786 13.5329 20.1085 13.5135C20.0002 13.4875 19.8775 13.5541 19.7405 13.7131C19.6034 13.8723 19.4617 14.093 19.3151 14.3755C19.1685 14.658 19.0219 14.9858 18.8754 15.3592C18.7288 15.7326 18.5949 16.1238 18.4739 16.5329C18.3336 16.9939 18.2157 17.4485 18.1201 17.8965C18.0245 18.3445 17.9688 18.7471 17.9528 19.1043C17.9369 19.4614 17.9688 19.7552 18.0484 19.9857C18.1281 20.2163 18.2731 20.3412 18.4834 20.3607H18.5025L18.5024 20.3608ZM45.2126 17.9063C45.3146 17.6076 45.4612 17.3511 45.6524 17.1368C45.8436 16.9226 46.0586 16.7473 46.2977 16.6109C46.5367 16.4745 46.7916 16.3738 47.0625 16.3089C47.3333 16.244 47.6026 16.2115 47.8703 16.2115C48.0806 16.2115 48.2861 16.2391 48.4868 16.2943C48.6876 16.3495 48.8661 16.4323 49.0222 16.5427C49.1784 16.6531 49.309 16.7911 49.4142 16.9567C49.5193 17.1222 49.5878 17.3154 49.6197 17.5362C49.5241 17.705 49.4126 17.8235 49.2851 17.8917C49.1576 17.9598 49.0254 17.9891 48.8884 17.9793C48.7514 17.9696 48.6112 17.9307 48.4678 17.8624C48.3244 17.7943 48.1889 17.7082 48.0615 17.6043C48.0742 17.5524 48.095 17.4745 48.1236 17.3706C48.1523 17.2667 48.1762 17.1611 48.1953 17.054C48.2144 16.9468 48.2177 16.8511 48.2049 16.7667C48.1922 16.6822 48.1539 16.6303 48.0902 16.6108C48.0201 16.5913 47.934 16.5995 47.832 16.6352C47.7301 16.6709 47.6249 16.7439 47.5166 16.8543C47.4082 16.9647 47.303 17.1173 47.2011 17.3121C47.0991 17.5069 47.0099 17.7536 46.9334 18.0523C46.8633 18.3186 46.8346 18.5588 46.8474 18.7731C46.8601 18.9874 46.9063 19.174 46.986 19.3332C47.0656 19.4922 47.1692 19.6254 47.2967 19.7325C47.4241 19.8396 47.5676 19.9191 47.7269 19.9711C47.9181 20.0295 48.1204 20.049 48.3339 20.0295C48.5474 20.0101 48.7545 19.9468 48.9553 19.8396C49.156 19.7325 49.3361 19.5815 49.4954 19.3867C49.6547 19.1919 49.7791 18.9549 49.8683 18.6757L50.0595 18.7341C49.983 19.0653 49.8507 19.3542 49.6627 19.601C49.4747 19.8477 49.2516 20.0539 48.9935 20.2195C48.7354 20.3851 48.4518 20.5101 48.1427 20.5945C47.8336 20.6789 47.5166 20.7178 47.1915 20.7113C46.7709 20.7048 46.4044 20.6351 46.0921 20.502C45.7798 20.3688 45.5345 20.1805 45.356 19.937C45.2395 19.7781 45.1543 19.5977 45.1003 19.396C45.0368 19.5767 44.9675 19.7343 44.8923 19.8688C44.7744 20.0799 44.6405 20.2503 44.4908 20.3802C44.341 20.51 44.1738 20.601 43.989 20.6529C43.8041 20.7048 43.6034 20.7308 43.3867 20.7308C42.8704 20.7308 42.5024 20.6107 42.2825 20.3705C42.1405 20.2152 42.063 20.0031 42.0499 19.7341C42.0233 19.7921 41.9957 19.8468 41.967 19.8981C41.8491 20.1091 41.7137 20.2795 41.5608 20.4094C41.4078 20.5393 41.2389 20.6302 41.0541 20.6821C40.8693 20.7341 40.6685 20.7601 40.4518 20.7601C39.942 20.7601 39.5771 20.6399 39.3572 20.3997C39.1374 20.1594 39.072 19.7828 39.1612 19.2698C39.1804 19.153 39.2091 19.0215 39.2473 18.8754C39.2856 18.7293 39.327 18.5815 39.3716 18.4322C39.4162 18.2829 39.4592 18.1368 39.5006 17.994C39.542 17.8511 39.5787 17.7212 39.6106 17.6044C39.6616 17.416 39.6568 17.2456 39.5962 17.093C39.5357 16.9404 39.4449 16.8479 39.3238 16.8154C39.1836 16.7699 39.0242 16.8333 38.8458 17.0053C38.6674 17.1774 38.5112 17.5102 38.3774 18.0037V17.9842L37.9281 19.6595C37.8962 19.7699 37.8771 19.9014 37.8707 20.054C37.8644 20.2066 37.9281 20.3576 38.0619 20.5069L38.0237 20.6627C37.8898 20.6822 37.7624 20.6968 37.6413 20.7066C37.5202 20.7163 37.3991 20.7179 37.278 20.7114C37.0868 20.7049 36.9148 20.6774 36.7618 20.6286C36.6089 20.58 36.4878 20.4988 36.3986 20.3852C36.3093 20.2715 36.2551 20.1205 36.236 19.9322C36.2169 19.7439 36.2424 19.5069 36.3125 19.2212L37.5266 14.6141C37.5457 14.5557 37.5616 14.4843 37.5744 14.3998C37.5871 14.3154 37.5967 14.2278 37.6031 14.1369C37.6095 14.046 37.611 13.9583 37.6079 13.8739C37.6046 13.7894 37.5903 13.7213 37.5649 13.6693C37.5202 13.5654 37.4405 13.5265 37.3258 13.5525L37.2876 13.4745C37.4214 13.3771 37.5744 13.2992 37.7464 13.2408C37.9185 13.1823 38.0842 13.1531 38.2435 13.1531C38.4794 13.1531 38.6722 13.2083 38.8219 13.3187C38.9717 13.4291 39.0817 13.5703 39.1517 13.7424C39.2218 13.9144 39.2585 14.1044 39.2616 14.3122C39.2649 14.52 39.241 14.7212 39.19 14.916L38.6642 16.864C38.8681 16.6173 39.1135 16.4387 39.4003 16.3283C39.6871 16.2179 39.9643 16.179 40.232 16.2114C40.4168 16.2309 40.5889 16.2845 40.7482 16.3722C40.9075 16.4598 41.0382 16.5767 41.1402 16.7228C41.2422 16.8689 41.3043 17.0475 41.3266 17.2585C41.3489 17.4696 41.3186 17.7082 41.2358 17.9744C41.2294 17.9939 41.2151 18.041 41.1927 18.1156C41.1704 18.1903 41.1449 18.2813 41.1162 18.3884C41.0876 18.4955 41.0573 18.6108 41.0255 18.7342C40.9936 18.8575 40.9633 18.9712 40.9346 19.0751C40.9059 19.179 40.8804 19.2699 40.8581 19.3478C40.8358 19.4257 40.8247 19.4712 40.8247 19.4842C40.7864 19.627 40.7976 19.7439 40.8581 19.8348C40.9187 19.9257 41.0031 19.9874 41.1115 20.0199C41.2262 20.0524 41.3393 20.0377 41.4509 19.9761C41.5624 19.9144 41.6628 19.83 41.752 19.7228C41.8413 19.6157 41.9193 19.5021 41.9862 19.3819C42.0466 19.2736 42.09 19.1772 42.1167 19.0926C42.1516 18.9311 42.1958 18.7565 42.2492 18.5686C42.3193 18.3219 42.3878 18.0833 42.4547 17.8528C42.5216 17.6222 42.5774 17.4161 42.622 17.2343C42.6666 17.0524 42.6793 16.9226 42.6602 16.8447C42.6092 16.7343 42.5296 16.6953 42.4212 16.7278L42.383 16.6596C42.5678 16.5102 42.7797 16.4096 43.0187 16.3576C43.2577 16.3057 43.4792 16.3057 43.6831 16.3576C43.7979 16.3901 43.903 16.4339 43.9986 16.4892C44.0942 16.5443 44.1707 16.6255 44.228 16.7326C44.2854 16.8398 44.3173 16.9762 44.3236 17.1417C44.33 17.3073 44.2981 17.5102 44.228 17.7504C44.2217 17.7699 44.2073 17.8219 44.185 17.9063C44.1627 17.9907 44.134 18.0946 44.099 18.218C44.0639 18.3414 44.0273 18.4712 43.9891 18.6076C43.9508 18.7439 43.9157 18.8722 43.8839 18.9923C43.852 19.1125 43.8233 19.2164 43.7979 19.304C43.7724 19.3917 43.7596 19.442 43.7596 19.455C43.7214 19.5914 43.7325 19.705 43.793 19.7959C43.8536 19.8868 43.9381 19.9485 44.0464 19.981C44.1611 20.0134 44.2743 19.9988 44.3858 19.9371C44.4973 19.8754 44.5977 19.7927 44.6869 19.6888C44.7762 19.5849 44.8542 19.4728 44.9211 19.3527C44.9759 19.2544 45.0168 19.1659 45.0438 19.0872L45.0407 19.0556C45.0088 18.7115 45.063 18.3284 45.2032 17.9063H45.2128L45.2126 17.9063ZM44.0081 14.0979C44.1356 14.0979 44.2567 14.1223 44.3714 14.171C44.4861 14.2197 44.5848 14.2879 44.6677 14.3755C44.7506 14.4632 44.8159 14.5638 44.8637 14.6775C44.9115 14.7911 44.9354 14.9129 44.9354 15.0427C44.9354 15.309 44.8462 15.533 44.6677 15.7148C44.4892 15.8966 44.2694 15.9876 44.0081 15.9876C43.8806 15.9876 43.7611 15.9632 43.6496 15.9145C43.538 15.8658 43.4393 15.7992 43.3532 15.7148C43.2672 15.6304 43.2003 15.5297 43.1525 15.4128C43.1047 15.296 43.0808 15.1726 43.0808 15.0427C43.0808 14.9129 43.1047 14.7911 43.1525 14.6775C43.2003 14.5638 43.2672 14.4632 43.3532 14.3755C43.4393 14.2879 43.538 14.2197 43.6496 14.171C43.7611 14.1223 43.8807 14.0979 44.0081 14.0979V14.0979ZM33.8842 19.4063C34.0117 19.153 34.1153 18.8901 34.1949 18.6173C34.2746 18.3446 34.3399 18.0751 34.3909 17.8089C34.4547 17.4323 34.4467 17.1628 34.367 17.0005C34.2873 16.8381 34.1774 16.7716 34.0372 16.8008C33.897 16.83 33.7488 16.9453 33.5927 17.1466C33.4365 17.3479 33.3106 17.6206 33.2151 17.9647V17.9745C33.1577 18.2018 33.0987 18.4307 33.0382 18.6612C32.9776 18.8917 32.9155 19.1205 32.8518 19.3478C32.839 19.4128 32.831 19.4793 32.8279 19.5475C32.8247 19.6157 32.831 19.679 32.847 19.7374C32.8629 19.7959 32.89 19.8478 32.9282 19.8933C32.9665 19.9387 33.0207 19.9712 33.0908 19.9907C33.1545 20.0102 33.2246 20.0069 33.3011 19.981C33.3776 19.955 33.4509 19.9144 33.521 19.8592C33.5911 19.804 33.658 19.7374 33.7218 19.6595C33.7855 19.5816 33.8396 19.4972 33.8843 19.4063H33.8842ZM32.6606 20.0978C32.5586 20.4679 32.4598 20.8364 32.3642 21.2033C32.2686 21.5702 32.173 21.9387 32.0774 22.3088C32.0583 22.3673 32.0423 22.4403 32.0296 22.528C32.0168 22.6156 32.0057 22.7049 31.9961 22.7958C31.9866 22.8868 31.985 22.9728 31.9914 23.0539C31.9977 23.1351 32.0105 23.2017 32.0296 23.2536C32.0806 23.351 32.1603 23.39 32.2686 23.3705L32.3069 23.4582C32.1794 23.5686 32.0296 23.6546 31.8575 23.7163C31.6854 23.778 31.5197 23.8121 31.3604 23.8186C31.1182 23.8186 30.9238 23.765 30.7773 23.6579C30.6307 23.5507 30.5223 23.4127 30.4522 23.2439C30.3821 23.0751 30.3455 22.8884 30.3423 22.6839C30.3391 22.4793 30.3598 22.2797 30.4044 22.0848L30.9197 20.1338C30.8523 20.2198 30.781 20.2954 30.7055 20.3608C30.5558 20.4907 30.3885 20.5816 30.2037 20.6335C30.0188 20.6855 29.8181 20.7115 29.6014 20.7115C28.9514 20.7115 28.5371 20.5199 28.3587 20.1368C28.2121 20.3187 28.0352 20.4615 27.8281 20.5654C27.6209 20.6693 27.374 20.7212 27.0872 20.7212C26.7621 20.7212 26.4913 20.6433 26.2746 20.4875C26.0579 20.3316 25.8906 20.132 25.7727 19.8884C25.6971 19.7323 25.6418 19.5654 25.6068 19.3878C25.5452 19.572 25.4762 19.7324 25.3999 19.869C25.2819 20.0801 25.1481 20.2505 24.9984 20.3803C24.8486 20.5102 24.6813 20.6011 24.4965 20.6531C24.3117 20.705 24.1109 20.731 23.8942 20.731C23.378 20.731 23.0099 20.6109 22.7901 20.3706C22.5702 20.1303 22.5081 19.7537 22.6037 19.2408C22.6228 19.1499 22.6594 18.9972 22.7136 18.783C22.7678 18.5687 22.8283 18.3414 22.8952 18.1012C22.9621 17.8609 23.0259 17.6321 23.0864 17.4145C23.147 17.197 23.19 17.0395 23.2155 16.9421C23.1072 16.9292 22.9781 16.9064 22.8283 16.8739C22.6786 16.8415 22.5622 16.809 22.4794 16.7765C22.4093 17.1661 22.3169 17.585 22.2022 18.033C22.0874 18.4811 21.9568 18.9064 21.8102 19.3089L21.6381 19.3187C21.6955 19.1758 21.7544 19.0037 21.815 18.8025C21.8755 18.6012 21.9345 18.3853 21.9919 18.1548C22.0492 17.9243 22.1034 17.684 22.1544 17.434C22.2054 17.184 22.25 16.9389 22.2882 16.6986C22.1034 16.6012 21.9345 16.486 21.7816 16.3529C21.6286 16.2197 21.4979 16.0428 21.3896 15.822C21.3004 15.6337 21.2733 15.4454 21.3084 15.2571C21.3434 15.0688 21.4119 14.9113 21.5139 14.7847C21.6158 14.6581 21.737 14.5753 21.8772 14.5363C22.0174 14.4974 22.1449 14.5282 22.2596 14.6289C22.3743 14.7295 22.4635 14.9129 22.5272 15.1792C22.591 15.4454 22.6005 15.822 22.5559 16.309H22.5655C22.7567 16.4194 22.9845 16.4843 23.249 16.5038C23.5135 16.5233 23.7668 16.5363 24.009 16.5428C24.1556 16.5557 24.2894 16.5801 24.4105 16.6158C24.5316 16.6516 24.6272 16.7197 24.6973 16.8204C24.7674 16.921 24.804 17.059 24.8073 17.2343C24.8104 17.4097 24.7706 17.6434 24.6878 17.9356C24.6814 17.9616 24.6575 18.0509 24.6161 18.2035C24.5746 18.3561 24.53 18.5217 24.4822 18.7002C24.4344 18.8788 24.3898 19.0444 24.3484 19.197C24.3069 19.3495 24.283 19.4356 24.2767 19.4551C24.2384 19.5914 24.248 19.705 24.3054 19.796C24.3627 19.8869 24.4487 19.9486 24.5635 19.981C24.6782 20.0135 24.7913 19.9989 24.9029 19.9372C25.0144 19.8755 25.1148 19.7927 25.204 19.6888C25.2932 19.5849 25.3713 19.4729 25.4382 19.3528C25.497 19.2472 25.5398 19.153 25.5667 19.07C25.5488 18.7781 25.5744 18.4941 25.6438 18.2181C25.7585 17.809 25.9178 17.4616 26.1218 17.1759C26.3257 16.8902 26.5694 16.6678 26.8531 16.5087C27.1367 16.3496 27.4522 16.2538 27.7995 16.2214C28.1468 16.1889 28.5181 16.2246 28.9132 16.3285C28.9897 16.3544 29.0662 16.3804 29.1427 16.4064C29.2192 16.4324 29.2924 16.4486 29.3625 16.4551H29.3721C29.6398 16.4356 29.866 16.4681 30.0508 16.5525C30.2675 16.6434 30.4061 16.8025 30.4667 17.0298C30.5272 17.257 30.5065 17.5427 30.4046 17.8869C30.3982 17.9129 30.3727 18.0038 30.3281 18.1596C30.2835 18.3155 30.2373 18.4843 30.1894 18.6661C30.1417 18.8479 30.097 19.0167 30.0556 19.1726C30.0142 19.3284 29.9903 19.4161 29.9839 19.4356C29.9457 19.5784 29.9552 19.6953 30.0126 19.7862C30.0699 19.8771 30.156 19.9388 30.2707 19.9713C30.3854 20.0037 30.4938 19.9875 30.5958 19.9226C30.6977 19.8577 30.7901 19.77 30.873 19.6596C30.9558 19.5492 31.026 19.4323 31.0833 19.3089C31.1407 19.1856 31.1821 19.0784 31.2076 18.9875L31.2215 18.9914L31.5518 17.7408C31.5645 17.6824 31.5789 17.6109 31.5948 17.5265C31.6108 17.4421 31.6219 17.3544 31.6283 17.2635C31.6346 17.1726 31.6362 17.085 31.633 17.0005C31.6299 16.9161 31.6155 16.8479 31.59 16.796C31.539 16.6856 31.4594 16.6466 31.3511 16.6791L31.3128 16.6012C31.4467 16.5037 31.5996 16.4258 31.7717 16.3674C31.9438 16.3089 32.1095 16.2797 32.2688 16.2797C32.4281 16.2797 32.5667 16.3057 32.6846 16.3577C32.8025 16.4096 32.9029 16.4794 32.9857 16.5671C33.0686 16.6547 33.1323 16.7586 33.1769 16.8788C33.2216 16.9989 33.2534 17.1239 33.2725 17.2538C33.4191 16.9161 33.6342 16.658 33.9178 16.4794C34.2014 16.3009 34.5376 16.2343 34.9264 16.2797C35.1622 16.3057 35.3566 16.3755 35.5095 16.4892C35.6625 16.6028 35.782 16.7424 35.868 16.908C35.9541 17.0736 36.0099 17.2586 36.0354 17.4632C36.0608 17.6677 36.0672 17.8771 36.0545 18.0914C36.029 18.4226 35.9541 18.7553 35.8298 19.0897C35.7055 19.4242 35.5382 19.7229 35.3279 19.9858C35.1176 20.2488 34.8642 20.4582 34.5679 20.614C34.2715 20.7699 33.9417 20.8316 33.5784 20.7991C33.3809 20.7861 33.2008 20.7293 33.0383 20.6287C32.8758 20.528 32.7468 20.3738 32.6512 20.166L32.6607 20.0979L32.6606 20.0978ZM28.263 19.5524C28.263 19.5004 28.2662 19.4469 28.2726 19.3917C28.2789 19.3365 28.2885 19.2829 28.3013 19.2309C28.3395 19.0296 28.3953 18.7992 28.4685 18.5394C28.5419 18.2797 28.6136 18.0281 28.6837 17.7845C28.7538 17.5411 28.8112 17.3219 28.8558 17.1271C28.9004 16.9323 28.9131 16.7959 28.894 16.718C28.8621 16.6401 28.8112 16.6011 28.741 16.6011C28.5498 16.6206 28.3793 16.6905 28.2296 16.8106C28.0798 16.9307 27.9459 17.0768 27.8281 17.2489C27.7102 17.4209 27.6114 17.606 27.5317 17.804C27.4521 18.0021 27.3899 18.1855 27.3453 18.3543C27.2178 18.8218 27.1828 19.1839 27.2401 19.4403C27.2975 19.6969 27.409 19.8608 27.5747 19.9322C27.7213 19.9906 27.8631 19.9841 28.0001 19.9127C28.1371 19.8413 28.2248 19.7212 28.263 19.5523V19.5524ZM66.5139 76.6771C66.7016 76.7854 66.9252 76.8491 67.1848 76.8682C67.4444 76.8873 67.693 76.9001 67.9307 76.9065C68.0746 76.9193 68.206 76.9431 68.3248 76.9782C68.4436 77.0133 68.5375 77.0802 68.6063 77.1789C68.6751 77.2777 68.711 77.4132 68.7142 77.5852C68.7173 77.7573 68.6782 77.9867 68.5969 78.2735C68.5906 78.299 68.5672 78.3867 68.5265 78.5364C68.4859 78.6862 68.442 78.8487 68.3951 79.024C68.3482 79.1992 68.3044 79.3618 68.2638 79.5115C68.2231 79.6613 68.1997 79.7457 68.1934 79.7649C68.1558 79.8987 68.1652 80.0102 68.2215 80.0995C68.2778 80.1887 68.3623 80.2492 68.4749 80.2811C68.5875 80.313 68.6985 80.2986 68.808 80.2381C68.9174 80.1775 69.016 80.0963 69.1036 79.9943C69.1911 79.8924 69.2678 79.7824 69.3334 79.6645C69.3991 79.5466 69.4444 79.443 69.4695 79.3538L69.5914 79.3825C69.5101 79.7011 69.4116 79.964 69.2959 80.1712C69.1802 80.3783 69.0488 80.5456 68.9018 80.673C68.7548 80.8005 68.5906 80.8897 68.4092 80.9407C68.2278 80.9917 68.0307 81.0172 67.8181 81.0172C67.3114 81.0172 66.9502 80.8993 66.7344 80.6635C66.5186 80.4277 66.4576 80.0581 66.5514 79.5546C66.5702 79.4653 66.6062 79.3156 66.6593 79.1053C66.7125 78.8949 66.7719 78.6719 66.8376 78.4361C66.9033 78.2003 66.9658 77.9756 67.0252 77.7621C67.0846 77.5486 67.1269 77.3941 67.1519 77.2985C67.0456 77.2858 66.9189 77.2634 66.7719 77.2316C66.6249 77.1997 66.5108 77.1679 66.4295 77.136C66.3606 77.5183 66.2699 77.9294 66.1573 78.3692C66.0282 78.8736 65.9103 79.5008 65.5946 79.9083C65.4069 80.1505 65.1864 80.3528 64.933 80.5153C64.6797 80.6779 64.4014 80.8005 64.098 80.8834C63.7946 80.9662 63.4865 81.0045 63.1738 80.9981C62.7609 80.9918 62.4013 80.9232 62.0947 80.7926C61.7882 80.6619 61.5474 80.4771 61.3723 80.2381C61.316 80.1614 61.2672 80.0796 61.2258 79.9927C61.1935 80.067 61.1594 80.1361 61.1238 80.1999C61.0081 80.407 60.8767 80.5743 60.7297 80.7018C60.5827 80.8292 60.4185 80.9184 60.2371 80.9694C60.0557 81.0204 59.8587 81.0459 59.646 81.0459C59.1394 81.0459 58.7781 80.928 58.5623 80.6922C58.3465 80.4564 58.2855 80.0868 58.3793 79.5833C58.3981 79.4686 58.4263 79.3396 58.4638 79.1961C58.5013 79.0528 58.5404 78.9078 58.5811 78.7612C58.6217 78.6146 58.6624 78.4712 58.703 78.331C58.7438 78.1908 58.7797 78.0633 58.8109 77.9486C58.861 77.7638 58.8563 77.5965 58.7969 77.4467C58.7375 77.297 58.6484 77.2062 58.5295 77.1743C58.3981 77.1297 58.2464 77.1886 58.0744 77.3511C57.9024 77.5137 57.7507 77.8275 57.6194 78.2928V78.3119L57.169 79.9657C57.1377 80.074 57.1189 80.2031 57.1127 80.3529C57.1064 80.5026 57.1659 80.6508 57.291 80.7974L57.2628 80.9503C57.1252 80.9694 56.997 80.9838 56.8781 80.9934C56.7592 81.0029 56.6435 81.0045 56.5309 80.9981C56.337 80.9918 56.165 80.9647 56.0149 80.9169C55.8647 80.8691 55.7459 80.7894 55.6583 80.6779C55.5708 80.5663 55.5176 80.4182 55.4988 80.2334C55.48 80.0485 55.5051 79.8159 55.5739 79.5355L55.9773 78.0155C55.9961 77.9582 56.0118 77.888 56.0243 77.8052C56.0367 77.7223 56.0461 77.6363 56.0524 77.5471C56.0586 77.4578 56.0602 77.3718 56.0571 77.2889C56.054 77.2061 56.0399 77.1392 56.0149 77.0882C55.9773 76.9799 55.8991 76.9416 55.7803 76.9735L55.7428 76.897C55.8741 76.8015 56.0243 76.7234 56.1931 76.6628C56.3621 76.6023 56.5247 76.5752 56.6811 76.5815C56.8437 76.5815 56.9844 76.6086 57.1033 76.6628C57.2221 76.717 57.3206 76.7887 57.3988 76.8779C57.477 76.9671 57.5396 77.0707 57.5865 77.1886C57.6334 77.3065 57.6631 77.4324 57.6756 77.5662C57.7632 77.3814 57.8742 77.2237 58.0087 77.093C58.1432 76.9624 58.2886 76.8556 58.445 76.7728C58.6014 76.6899 58.7624 76.6325 58.9282 76.6007C59.094 76.5688 59.2582 76.5624 59.4208 76.5816C59.6022 76.6007 59.7711 76.6533 59.9275 76.7393C60.0838 76.8253 60.2121 76.9401 60.3122 77.0834C60.4122 77.2269 60.4733 77.4021 60.4952 77.6092C60.517 77.8164 60.4873 78.0506 60.406 78.3118C60.3998 78.3374 60.3763 78.425 60.3356 78.5748C60.295 78.7245 60.2512 78.8854 60.2043 79.0575C60.1574 79.2296 60.1152 79.3905 60.0776 79.5403C60.0401 79.69 60.0182 79.7745 60.0119 79.7937C59.9744 79.9338 59.9838 80.0486 60.0401 80.1378C60.0964 80.227 60.1808 80.2876 60.2934 80.3194C60.406 80.3513 60.5155 80.337 60.6218 80.2764C60.7281 80.2159 60.8267 80.133 60.9174 80.0279C60.9987 79.9336 61.0688 79.8342 61.1275 79.7297C61.0959 79.6176 61.0743 79.4987 61.0626 79.3731C61.0314 79.0353 61.0845 78.6592 61.2222 78.245C61.3222 77.9519 61.4661 77.7001 61.6537 77.4898C61.8414 77.2794 62.0541 77.1074 62.2918 76.9736C62.5295 76.8397 62.7813 76.7409 63.0471 76.6772C63.3129 76.6135 63.5773 76.5816 63.84 76.5816C64.1152 76.5816 64.3623 76.623 64.5812 76.7059C64.8001 76.7888 64.9847 76.8971 65.1348 77.0309C65.2849 77.1648 65.3944 77.3177 65.4632 77.4898C65.532 77.6619 65.557 77.8372 65.5383 78.0156C65.5195 78.1877 65.4538 78.3566 65.3412 78.5223C65.2286 78.6879 65.0629 78.8378 64.8439 78.9716C64.625 79.1054 64.3513 79.2122 64.023 79.2918C63.6946 79.3715 63.3051 79.4049 62.8548 79.3922C62.9549 79.8383 63.2645 80.1283 63.7837 80.2621C64.0402 80.3322 64.2778 80.3434 64.4968 80.2956C64.7158 80.2478 64.9112 80.1633 65.0832 80.0422C65.2552 79.9212 65.4022 79.7698 65.5242 79.5882C65.7554 79.2439 65.8525 78.8843 65.951 78.4888C66.0073 78.2625 66.0604 78.0267 66.1105 77.7814C66.1605 77.536 66.2043 77.2954 66.2418 77.0596C66.0604 76.964 65.8947 76.8509 65.7446 76.7203C65.5944 76.5896 65.4662 76.4159 65.3599 76.1993C65.2723 76.0145 65.2457 75.8297 65.2801 75.6448C65.3145 75.46 65.3817 75.3054 65.4818 75.1812C65.5819 75.0569 65.7008 74.9757 65.8384 74.9374C65.976 74.8992 66.1011 74.9294 66.2137 75.0282C66.3263 75.127 66.4138 75.3071 66.4764 75.5684C66.5389 75.8297 66.5483 76.1993 66.5045 76.6773H66.5139L66.5139 76.6771ZM62.8173 79.1626C63.0174 79.1562 63.1957 79.0988 63.3521 78.9905C63.5084 78.8822 63.6429 78.7499 63.7555 78.5938C63.8681 78.4376 63.9588 78.2687 64.0276 78.0871C64.0964 77.9055 64.1434 77.735 64.1684 77.5756C64.1934 77.4163 64.195 77.2809 64.173 77.1694C64.1512 77.0579 64.109 76.9925 64.0464 76.9734C63.9713 76.9543 63.8853 76.9623 63.7883 76.9973C63.6914 77.0323 63.5898 77.104 63.4834 77.2124C63.3771 77.3207 63.2738 77.4705 63.1738 77.6617C63.0737 77.8529 62.9861 78.0951 62.9111 78.3882C62.8735 78.5348 62.8454 78.6718 62.8266 78.7993C62.8079 78.9268 62.8047 79.0478 62.8172 79.1626H62.8173ZM55.6773 77.1264C55.6085 77.1582 55.5538 77.2188 55.5131 77.308C55.4724 77.3972 55.4271 77.5311 55.377 77.7095L54.4763 81.1127C54.4638 81.1637 54.4435 81.237 54.4153 81.3326C54.3872 81.4282 54.3637 81.5015 54.3449 81.5525C54.2449 81.8456 54.1042 82.0974 53.9228 82.3077C53.7413 82.518 53.5365 82.6901 53.3082 82.8239C53.0798 82.9578 52.8343 83.0566 52.5716 83.1203C52.3089 83.184 52.0462 83.2159 51.7834 83.2159C51.577 83.2159 51.3753 83.1888 51.1783 83.1346C50.9813 83.0804 50.8061 82.9992 50.6528 82.8908C50.4996 82.7825 50.3698 82.6471 50.2635 82.4845C50.1571 82.322 50.0883 82.1324 50.057 81.9158C50.1508 81.7501 50.2619 81.6338 50.3901 81.5668C50.5183 81.4999 50.6497 81.4712 50.7842 81.4808C50.9187 81.4903 51.0547 81.5286 51.1923 81.5955C51.3299 81.6624 51.4613 81.7468 51.5864 81.8488C51.5739 81.8998 51.5551 81.9763 51.5301 82.0782C51.5051 82.1802 51.4832 82.2838 51.4644 82.389C51.4457 82.4941 51.441 82.5897 51.4504 82.6757C51.4598 82.7618 51.4989 82.8143 51.5677 82.8335C51.6365 82.8526 51.7209 82.8446 51.821 82.8096C51.9211 82.7745 52.0227 82.7012 52.126 82.5897C52.2292 82.4782 52.3324 82.3267 52.4356 82.1356C52.5388 81.9444 52.628 81.7022 52.703 81.409C52.7093 81.3836 52.7217 81.3358 52.7405 81.2657C52.7593 81.1955 52.7718 81.1445 52.7781 81.1127L52.9282 80.5296C52.7843 80.6507 52.6139 80.7606 52.4169 80.8593C52.2198 80.9581 52.0025 81.0075 51.7647 81.0075C51.4895 81.0075 51.2534 80.9294 51.0563 80.7733C50.8593 80.6172 50.7092 80.4117 50.6059 80.1567C50.5902 80.1179 50.5757 80.0782 50.5625 80.0376C50.5401 80.0844 50.5171 80.1288 50.4936 80.171C50.3778 80.3782 50.2465 80.5454 50.0995 80.6729C49.9525 80.8004 49.7883 80.8896 49.6069 80.9406C49.4255 80.9916 49.2284 81.0171 49.0158 81.0171C48.5091 81.0171 48.1479 80.8992 47.9321 80.6634C47.7163 80.4276 47.6522 80.0579 47.7397 79.5545C47.7773 79.3569 47.8305 79.137 47.8993 78.8948C47.9681 78.6527 48.0353 78.4185 48.101 78.1922C48.1666 77.966 48.2214 77.7636 48.2652 77.5852C48.309 77.4067 48.3214 77.2793 48.3027 77.2028C48.2527 77.0945 48.1745 77.0563 48.0681 77.0881L48.0306 77.0212C48.212 76.8746 48.42 76.7758 48.6546 76.7248C48.8891 76.6739 49.1065 76.6739 49.3067 76.7248C49.4193 76.7567 49.5225 76.7997 49.6163 76.8539C49.7101 76.908 49.7852 76.9878 49.8415 77.0929C49.8978 77.198 49.9291 77.3319 49.9354 77.4944C49.9416 77.6569 49.9103 77.8561 49.8415 78.0919C49.8352 78.111 49.8212 78.162 49.7993 78.2448C49.7774 78.3277 49.7492 78.4296 49.7149 78.5507C49.6804 78.6718 49.6444 78.7993 49.607 78.9331C49.5694 79.067 49.535 79.1928 49.5037 79.3107C49.4725 79.4286 49.4443 79.5306 49.4193 79.6166C49.3943 79.7027 49.3817 79.7521 49.3817 79.7648C49.3442 79.8987 49.3551 80.0102 49.4146 80.0994C49.474 80.1886 49.5569 80.2491 49.6632 80.281C49.7758 80.3129 49.8869 80.2985 49.9963 80.238C50.1058 80.1775 50.2043 80.0962 50.2919 79.9942C50.3647 79.9095 50.4298 79.8194 50.4874 79.7237C50.4649 79.5835 50.4544 79.4347 50.4559 79.2773C50.459 78.9459 50.5263 78.6017 50.6576 78.2448C50.8641 77.6776 51.1721 77.2554 51.5819 76.9782C51.9916 76.7009 52.4717 76.5687 53.0221 76.5814C53.1973 76.5878 53.3755 76.6101 53.557 76.6483C53.7384 76.6866 53.9072 76.7503 54.0636 76.8395C54.2262 76.6802 54.4389 76.6149 54.7016 76.6436C54.9644 76.6722 55.3021 76.7981 55.715 77.0211L55.6774 77.1263L55.6773 77.1264ZM53.8758 77.0977C53.8258 77.0849 53.782 77.0786 53.7445 77.0786C53.5693 77.0722 53.4082 77.1057 53.2612 77.1789C53.1143 77.2522 52.9829 77.351 52.8671 77.4753C52.7514 77.5996 52.6498 77.7413 52.5622 77.9006C52.4747 78.06 52.4027 78.2225 52.3464 78.3882C52.2839 78.5603 52.2385 78.7419 52.2103 78.9331C52.1822 79.1243 52.1791 79.3012 52.201 79.4637C52.2229 79.6262 52.2745 79.7696 52.3558 79.8939C52.4371 80.0182 52.5528 80.0994 52.7029 80.1376C52.8155 80.1631 52.9313 80.144 53.0501 80.0803L53.7257 77.5088C53.7444 77.4323 53.7664 77.3589 53.7913 77.2888C53.8164 77.2187 53.8445 77.155 53.8758 77.0977H53.8758ZM49.6256 74.507C49.7507 74.507 49.8696 74.5309 49.9821 74.5787C50.0947 74.6265 50.1917 74.6934 50.273 74.7794C50.3543 74.8655 50.4185 74.9643 50.4653 75.0758C50.5123 75.1873 50.5358 75.3068 50.5358 75.4343C50.5358 75.6956 50.4482 75.9155 50.273 76.0939C50.0979 76.2723 49.8821 76.3615 49.6256 76.3615C49.5005 76.3615 49.3832 76.3376 49.2738 76.2899C49.1643 76.2421 49.0674 76.1767 48.9829 76.0939C48.8985 76.011 48.8328 75.9122 48.7859 75.7976C48.739 75.6828 48.7155 75.5618 48.7155 75.4343C48.7155 75.3068 48.739 75.1873 48.7859 75.0758C48.8328 74.9643 48.8985 74.8655 48.9829 74.7794C49.0674 74.6934 49.1643 74.6265 49.2738 74.5787C49.3832 74.5309 49.5005 74.507 49.6256 74.507V74.507ZM45.4692 79.6309C45.3441 79.4525 45.219 79.2581 45.0939 79.0478C44.9688 78.8375 44.8437 78.6367 44.7186 78.4456C44.5372 78.1588 44.459 77.8927 44.484 77.6474C44.5091 77.402 44.5998 77.1885 44.7561 77.0068C44.9125 76.8252 45.1189 76.6834 45.3754 76.5814C45.6319 76.4795 45.904 76.4285 46.1917 76.4285C46.3982 76.4285 46.5998 76.462 46.7969 76.5289C46.9939 76.5958 47.1707 76.6946 47.327 76.8252C47.4834 76.9558 47.6101 77.112 47.707 77.2936C47.804 77.4753 47.8524 77.6808 47.8524 77.9102L47.7305 77.9485C47.6992 77.7127 47.6304 77.5119 47.524 77.3462C47.4177 77.1805 47.2957 77.0531 47.1581 76.9638C47.0205 76.8746 46.8813 76.8236 46.7406 76.8109C46.5998 76.7981 46.4857 76.8268 46.3981 76.8969C46.2918 76.9798 46.237 77.112 46.2339 77.2937C46.2307 77.4753 46.3074 77.6777 46.4637 77.9007C46.5701 78.0664 46.6921 78.2608 46.8297 78.4839C46.9673 78.7069 47.0924 78.9108 47.205 79.0957C47.3801 79.3761 47.4521 79.6326 47.4208 79.8652C47.3895 80.0979 47.2894 80.2986 47.1205 80.4675C46.9517 80.6364 46.7343 80.767 46.4684 80.8594C46.2026 80.9519 45.9258 80.998 45.638 80.998C45.4441 80.998 45.2565 80.971 45.0751 80.9168C44.8937 80.8626 44.7342 80.7734 44.5966 80.6491C44.459 80.5248 44.3479 80.3623 44.2635 80.1615C44.2331 80.0894 44.2082 80.0109 44.1888 79.926C44.0042 80.1603 43.7883 80.3568 43.5412 80.5153C43.2878 80.6778 43.0095 80.8005 42.7061 80.8833C42.4027 80.9662 42.0946 81.0044 41.7819 80.998C41.3691 80.9917 41.0094 80.9232 40.7029 80.7925C40.3963 80.6619 40.1555 80.477 39.9804 80.2381C39.8053 79.9991 39.702 79.7107 39.6708 79.3729C39.6395 79.0352 39.6927 78.6591 39.8303 78.2449C39.9304 77.9517 40.0742 77.7 40.2619 77.4897C40.4496 77.2793 40.6622 77.1073 40.8999 76.9734C41.1376 76.8396 41.3894 76.7408 41.6553 76.6771C41.9211 76.6133 42.1854 76.5815 42.4481 76.5815C42.7233 76.5815 42.9704 76.6229 43.1894 76.7058C43.4083 76.7886 43.5928 76.897 43.7429 77.0308C43.8931 77.1647 44.0025 77.3176 44.0713 77.4897C44.1401 77.6617 44.1652 77.837 44.1464 78.0155C44.1276 78.1876 44.0619 78.3564 43.9493 78.5222C43.8368 78.6878 43.671 78.8376 43.4521 78.9714C43.2331 79.1053 42.9595 79.212 42.6311 79.2917C42.3027 79.3714 41.9133 79.4048 41.4629 79.3921C41.563 79.8382 41.8726 80.1282 42.3918 80.262C42.6483 80.3321 42.886 80.3433 43.1049 80.2955C43.3239 80.2477 43.5193 80.1632 43.6914 80.0421C43.9661 79.8487 44.3191 79.3026 44.4091 79.0001L44.5968 79.0574C44.5391 79.3072 44.4482 79.5323 44.3241 79.7332C44.3473 79.8667 44.3849 79.9841 44.4371 80.0851C44.5309 80.2668 44.642 80.4022 44.7702 80.4914C44.8984 80.5806 45.0314 80.6285 45.169 80.6348C45.3066 80.6412 45.4192 80.6125 45.5067 80.5488C45.6131 80.4723 45.6694 80.3576 45.6757 80.2046C45.6819 80.0517 45.61 79.8605 45.4598 79.631H45.4692V79.6309ZM41.4254 79.1626C41.6256 79.1562 41.8038 79.0988 41.9602 78.9905C42.1166 78.8821 42.2511 78.7499 42.3637 78.5937C42.4763 78.4376 42.567 78.2687 42.6358 78.0871C42.7046 77.9054 42.7515 77.735 42.7765 77.5756C42.8016 77.4163 42.8032 77.2809 42.7812 77.1693C42.7593 77.0578 42.7171 76.9925 42.6545 76.9734C42.5795 76.9543 42.4935 76.9622 42.3965 76.9973C42.2995 77.0323 42.1979 77.104 42.0916 77.2123C41.9853 77.3207 41.882 77.4705 41.782 77.6617C41.6818 77.8529 41.5943 78.095 41.5192 78.3882C41.4817 78.5348 41.4536 78.6718 41.4348 78.7993C41.416 78.9268 41.4129 79.0478 41.4254 79.1626H41.4254ZM35.1204 74.4305C35.4269 74.1947 35.7271 74.0099 36.0211 73.8761C36.3151 73.7422 36.5981 73.6498 36.8702 73.5988C37.1424 73.5479 37.4004 73.5351 37.6443 73.5606C37.8883 73.5861 38.1134 73.6402 38.3199 73.7231C38.6451 73.8569 38.9063 74.0545 39.1033 74.3158C39.3003 74.5771 39.4427 74.8798 39.5303 75.224C39.6178 75.5681 39.6569 75.941 39.6475 76.3425C39.6382 76.744 39.5897 77.1455 39.5021 77.5469C39.4083 77.9867 39.2707 78.4153 39.0893 78.8327C38.9079 79.2502 38.6999 79.6182 38.4653 79.9369C38.2307 80.2555 37.9743 80.5121 37.696 80.7065C37.4176 80.9008 37.1283 80.998 36.828 80.998C36.6842 80.998 36.5512 80.9773 36.4293 80.9359C36.3073 80.8945 36.201 80.8387 36.1103 80.7686C36.0196 80.6985 35.9445 80.6204 35.8851 80.5343C35.8257 80.4483 35.7866 80.367 35.7678 80.2906L35.871 80.2141C35.9836 80.4435 36.1259 80.5137 36.2979 80.4244C36.4699 80.3352 36.6451 80.1408 36.8234 79.8413C37.0016 79.5417 37.1737 79.1705 37.3394 78.7276C37.5052 78.2846 37.6412 77.8242 37.7476 77.3462C37.8101 77.0531 37.8586 76.7631 37.893 76.4763C37.9274 76.1895 37.9415 75.9202 37.9352 75.6685C37.929 75.4168 37.8993 75.1889 37.8461 74.985C37.7929 74.781 37.71 74.6122 37.5974 74.4783C37.4848 74.3445 37.3504 74.2362 37.194 74.1533C37.0376 74.0704 36.8593 74.0274 36.6592 74.0242C36.459 74.0211 36.2401 74.0641 36.0023 74.1533C35.7647 74.2425 35.5113 74.3923 35.2424 74.6026L35.1204 74.4305V74.4305Z" fill="white"/>
</svg>
