<svg width="25" height="24" viewBox="0 0 25 24" fill="none" xmlns="http://www.w3.org/2000/svg">
<path fill-rule="evenodd" clip-rule="evenodd" d="M23.0475 15.5214C23.7069 15.2334 24.4931 15.7854 24.218 16.4334C22.3408 20.8733 17.8365 24 12.577 24C5.63038 24 0 18.5454 0 11.816C0 6.15073 3.99184 1.38807 9.39834 0.0240785C10.0996 -0.15192 10.5595 0.674744 10.1765 1.27207C9.17563 2.83069 8.64511 4.63919 8.64718 6.48539C8.64718 11.9534 13.2216 16.3854 18.8655 16.3854C20.305 16.3877 21.7293 16.0934 23.0475 15.5214ZM15.9162 1.21488C15.4401 0.508211 16.2924 -0.334452 17.0072 0.137546L18.2816 0.977543C18.7983 1.3183 19.4055 1.50014 20.0267 1.50014C20.6478 1.50014 21.255 1.3183 21.7718 0.977543L23.0448 0.137546C23.7609 -0.334452 24.6132 0.508211 24.1358 1.21488L23.2862 2.47487C22.9416 2.98575 22.7576 3.5861 22.7576 4.2002C22.7576 4.8143 22.9416 5.41464 23.2862 5.92553L24.1358 7.18552C24.6132 7.89219 23.7609 8.73485 23.0462 8.26285L21.7718 7.42286C21.255 7.0821 20.6478 6.90026 20.0267 6.90026C19.4055 6.90026 18.7983 7.0821 18.2816 7.42286L17.0085 8.26285C16.2938 8.73485 15.4401 7.89219 15.9162 7.18552L16.7658 5.92553C17.1104 5.41464 17.2944 4.8143 17.2944 4.2002C17.2944 3.5861 17.1104 2.98575 16.7658 2.47487L15.9162 1.21488Z" fill="#3D144C"/>
</svg>
