<svg width="24" height="25" viewBox="0 0 24 25" fill="none" xmlns="http://www.w3.org/2000/svg">
<path d="M10.8 10.6926L9.72 9.6426C9.48 9.4226 9.1948 9.3174 8.8644 9.327C8.5348 9.3374 8.26 9.4526 8.04 9.6726C7.82 9.8926 7.71 10.1726 7.71 10.5126C7.71 10.8526 7.82 11.1326 8.04 11.3526L11.16 14.4726C11.38 14.6926 11.66 14.8026 12 14.8026C12.34 14.8026 12.62 14.6926 12.84 14.4726L15.99 11.3226C16.21 11.1026 16.3152 10.8274 16.3056 10.497C16.2952 10.1674 16.18 9.8926 15.96 9.6726C15.74 9.4526 15.46 9.3374 15.12 9.327C14.78 9.3174 14.5 9.4326 14.28 9.6726L13.2 10.6926V6.8826C13.2 6.5426 13.0852 6.2626 12.8556 6.0426C12.6252 5.8226 12.34 5.7126 12 5.7126C11.66 5.7126 11.3752 5.8274 11.1456 6.057C10.9152 6.2874 10.8 6.5726 10.8 6.9126V10.6926ZM7.2 18.9126H16.83C17.17 18.9126 17.45 18.7974 17.67 18.567C17.89 18.3374 18 18.0526 18 17.7126C18 17.3726 17.8848 17.0874 17.6544 16.857C17.4248 16.6274 17.14 16.5126 16.8 16.5126H7.17C6.83 16.5126 6.55 16.6274 6.33 16.857C6.11 17.0874 6 17.3726 6 17.7126C6 18.0526 6.1148 18.3374 6.3444 18.567C6.5748 18.7974 6.86 18.9126 7.2 18.9126ZM12 24.9126C10.34 24.9126 8.78 24.5974 7.32 23.967C5.86 23.3374 4.59 22.4826 3.51 21.4026C2.43 20.3226 1.5752 19.0526 0.9456 17.5926C0.3152 16.1326 0 14.5726 0 12.9126C0 11.2526 0.3152 9.6926 0.9456 8.2326C1.5752 6.7726 2.43 5.5026 3.51 4.4226C4.59 3.3426 5.86 2.4874 7.32 1.857C8.78 1.2274 10.34 0.912598 12 0.912598C13.66 0.912598 15.22 1.2274 16.68 1.857C18.14 2.4874 19.41 3.3426 20.49 4.4226C21.57 5.5026 22.4248 6.7726 23.0544 8.2326C23.6848 9.6926 24 11.2526 24 12.9126C24 14.5726 23.6848 16.1326 23.0544 17.5926C22.4248 19.0526 21.57 20.3226 20.49 21.4026C19.41 22.4826 18.14 23.3374 16.68 23.967C15.22 24.5974 13.66 24.9126 12 24.9126Z" fill="#1685F8"/>
</svg>
