<svg width="17" height="21" viewBox="0 0 17 21" fill="none" xmlns="http://www.w3.org/2000/svg">
<path d="M0.878754 0.988048C0.777116 0.928242 0.663251 0.903196 0.550112 0.915758C0.436972 0.92832 0.329101 0.977986 0.238767 1.05911C0.148434 1.14023 0.0792647 1.24954 0.0391285 1.37462C-0.00100772 1.4997 -0.0105 1.63553 0.0117314 1.76664L1.71542 8.6954C1.74719 8.82452 1.80928 8.94047 1.89456 9.02993C1.97984 9.1194 2.08484 9.17873 2.1975 9.20112L9.10697 10.5626C9.43241 10.6383 9.43241 11.1869 9.10697 11.2626L2.1975 12.6241C2.08484 12.6465 1.97984 12.7058 1.89456 12.7953C1.80928 12.8847 1.74719 13.0007 1.71542 13.1298L0.0117314 20.0586C-0.0105 20.1897 -0.00100772 20.3255 0.0391285 20.4506C0.0792647 20.5757 0.148434 20.685 0.238767 20.7661C0.329101 20.8472 0.436972 20.8969 0.550112 20.9094C0.663251 20.922 0.777116 20.897 0.878754 20.8371L16.6649 11.5512C16.7656 11.4918 16.8503 11.4006 16.9095 11.2878C16.9687 11.1751 17 11.0451 17 10.9126C17 10.7801 16.9687 10.6501 16.9095 10.5374C16.8503 10.4246 16.7656 10.3334 16.6649 10.274L0.878754 0.988048Z" fill="white"/>
</svg>
