<svg width="81" height="80" viewBox="0 0 81 80" fill="none" xmlns="http://www.w3.org/2000/svg">
<path d="M28.8096 35.6581C28.4723 34.5983 28.1687 33.5726 27.8313 32.5128C27.494 31.453 27.1904 30.4615 26.9205 29.4701C26.6506 28.5128 26.4145 27.6239 26.1783 26.8034H26.1108C25.8072 28.2735 25.4361 29.7436 24.9639 31.2137C24.4578 32.8547 23.9518 34.5641 23.412 36.2735C22.9735 38.0171 22.4337 39.6239 21.9277 41.0598H30.4964C30.294 40.3419 30.0241 39.4872 29.7205 38.5983C29.4169 37.6752 29.1133 36.6838 28.8096 35.6581ZM57.7542 34.6667C55.8988 34.5641 54.1446 35.5556 53.2675 37.265C52.8626 38.0513 52.6265 38.8718 52.5253 39.7265H59.64C60.5171 39.7265 61.1581 39.7265 61.5629 39.6923C61.8328 39.6581 62.1026 39.5897 62.3388 39.4188V39.0769C62.3257 38.4816 62.1965 37.8948 61.9586 37.3503C61.7206 36.8058 61.3788 36.3144 60.9526 35.9044C60.5264 35.4945 60.0244 35.174 59.4755 34.9616C58.9265 34.7492 58.3415 34.6489 57.7542 34.6667ZM66.6265 0H14.3373C6.40964 0 0 6.49573 0 14.5299V65.4701C0 73.5043 6.40964 80 14.3373 80H66.6265C74.5542 80 80.9639 73.5043 80.9639 65.4701V14.5299C80.9639 6.49573 74.5542 0 66.6265 0ZM42.8771 56.4479H35.8265C35.5904 56.4821 35.3542 56.3077 35.2867 56.0718L32.5205 47.8667H19.9711L17.4072 55.935C17.3398 56.2427 17.0699 56.4479 16.7663 56.4137H10.4241C10.053 56.4137 9.95181 56.2085 10.053 55.7983L20.9157 24.2393C21.0169 23.8974 21.1181 23.5897 21.253 23.1795C21.388 22.4615 21.4554 21.7094 21.4554 20.9573C21.4217 20.7863 21.5566 20.6154 21.7253 20.5812H30.4626C30.6988 20.5812 30.8675 20.6838 30.9012 20.8547L43.2145 55.8974C43.3157 56.2735 43.2178 56.4479 42.8771 56.4479ZM69.3624 42.8034C69.2916 43.4496 69.2578 43.9316 69.2241 44.2393C69.1904 44.4786 68.9913 44.6838 68.7518 44.6838C68.5494 44.6838 68.1783 44.7179 67.6385 44.7556C67.1022 44.8239 66.4578 44.8547 65.6853 44.8547C64.9094 44.8547 64.0964 44.7179 63.2226 44.7179H52.5287C52.6602 45.7778 53.001 46.8376 53.5745 47.7607C54.1714 48.6808 55.0286 49.397 56.0337 49.8154C57.3831 50.3966 58.8708 50.7043 60.3552 50.6701C61.5359 50.6325 62.7133 50.5333 63.8602 50.294C64.8908 50.1607 65.9006 49.8966 66.866 49.5077C67.0347 49.3744 67.1359 49.4393 67.1359 49.7812V55.0154C67.1359 55.1487 67.1022 55.2889 67.0651 55.4222C67.0044 55.5173 66.9252 55.5987 66.8323 55.6615C65.7528 56.1402 64.6395 56.4821 63.4588 56.6872C61.8699 56.9949 60.2877 57.1316 58.6684 57.0974C56.1012 57.0974 53.9455 56.6872 52.1913 55.9009C50.5409 55.1725 49.0834 54.0597 47.9373 52.653C46.8612 51.3197 46.0819 49.8154 45.6096 48.1744C45.1376 46.5527 44.9001 44.8702 44.9046 43.1795C44.9046 41.3368 45.1745 39.5214 45.748 37.7436C46.2877 36.0342 47.1311 34.4615 48.2781 33.0598C49.3913 31.6923 50.7711 30.5983 52.3566 29.812C53.9455 29.0256 55.8313 28.7521 57.9904 28.7521C59.7892 28.7096 61.575 29.0716 63.2193 29.812C64.6024 30.4273 65.8169 31.3504 66.7614 32.547C67.6386 33.7094 68.347 35.0085 68.7889 36.4444C69.2241 37.812 69.4265 39.2137 69.4265 40.6154C69.4265 41.4359 69.3928 42.1538 69.3624 42.8034Z" fill="#3D144C"/>
</svg>
