<svg width="82" height="80" viewBox="0 0 82 80" fill="none" xmlns="http://www.w3.org/2000/svg">
<path fill-rule="evenodd" clip-rule="evenodd" d="M14.4109 0H66.9684C74.9368 0 81.3793 6.49573 81.3793 14.5299V65.4701C81.3793 73.5043 74.9368 80 66.9684 80H14.4109C6.44253 80 0 73.5043 0 65.4701V14.5299C0 6.49573 6.44253 0 14.4109 0ZM44.8323 65.4624H36.019L37.2025 71.0345H43.6331L44.8323 65.4624ZM39.5631 62.3707C36.068 50.2156 34.0298 39.743 33.5707 31.3625C32.0936 2.05553 48.7924 1.20693 47.28 31.3705C46.8204 39.7497 44.7822 50.2197 41.2881 62.3707C40.7413 62.6753 40.1674 62.6875 39.5631 62.3707ZM27.6707 28.715C26.9301 13.0408 37.2181 8.96556 37.2181 8.96556C28.9544 10.0845 22.7692 18.0577 22.834 27.5656C23.0137 38.2893 32.3444 56.5126 38.6441 62.3622C38.6441 62.3622 28.4112 44.3891 27.6707 28.715ZM36.1313 61.0441C33.4345 57.4537 22.1335 42.4087 20.861 28.9416L20.8612 28.9417C20.1412 22.9328 21.8191 16.2716 28.2337 11.7199C28.2337 11.7199 17.1827 16.4838 19.3681 30.238C21.5535 43.9923 33.1832 58.6707 36.6371 61.7882C36.8276 61.971 36.6217 61.6969 36.1313 61.0441ZM53.3792 28.715C52.6815 43.4801 45.3861 59.7736 44.5422 61.6139V61.614L44.4407 61.8027C47.8944 58.6852 59.5449 43.9923 61.7305 30.238C63.9158 16.4838 52.8649 11.7199 52.8649 11.7199C59.2796 16.2716 60.9575 22.9328 60.2375 28.9416C59.4627 37.1427 54.9688 45.9286 50.9639 52.3569C54.9178 44.6431 58.0976 34.6102 58.2158 27.5656C58.0771 16.2498 50.956 11.6703 48.9408 10.6652C46.9256 9.65995 44.7908 9.00823 43.8318 8.96556C43.8318 8.96556 54.1197 13.0408 53.3792 28.715Z" fill="#3D144C"/>
</svg>
