<svg width="83" height="80" viewBox="0 0 83 80" fill="none" xmlns="http://www.w3.org/2000/svg">
<path d="M36.1324 35.6581C35.7892 34.5983 35.4804 33.5726 35.1373 32.5128C34.7941 31.453 34.4853 30.4615 34.2108 29.4701C33.9363 28.5128 33.6961 27.6239 33.4559 26.8034H33.3873C33.0784 28.2735 32.701 29.7436 32.2206 31.2137C31.7059 32.8547 31.1912 34.5641 30.6422 36.2735C30.1618 38.0171 29.6471 39.6239 29.1324 41.0598H37.848C37.6422 40.3385 37.3676 39.4872 37.0588 38.5949C36.75 37.6752 36.4412 36.6838 36.1324 35.6581ZM67.7696 0H14.5833C6.51961 0 0 6.49573 0 14.5299V65.4701C0 73.5043 6.51961 80 14.5833 80H67.7696C75.8333 80 82.3529 73.5043 82.3529 65.4701V14.5299C82.3529 6.49573 75.8333 0 67.7696 0ZM50.4412 56.5128H43.2662C43.0294 56.547 42.7892 56.3761 42.7206 56.1367L39.9069 48H27.1422L24.5343 56.0342C24.4657 56.3419 24.1912 56.547 23.8824 56.5162H17.4314C17.0539 56.5162 16.951 56.3077 17.0539 55.9009L28.1029 24.2051C28.2059 23.8632 28.3088 23.4872 28.4461 23.0769C28.5833 22.359 28.652 21.6068 28.652 20.8547C28.6176 20.6838 28.7549 20.5128 28.9265 20.4786H37.8137C38.0882 20.4786 38.2255 20.5812 38.2598 20.7521L50.7843 55.9658C50.8873 56.3385 50.7843 56.5128 50.4412 56.5128ZM62.1078 56C62.1078 56.3761 61.974 56.547 61.6652 56.547H54.9363C54.5931 56.547 54.4216 56.3385 54.4216 56V29.6752C54.4216 29.3333 54.5623 29.1966 54.8711 29.1966H61.6652C61.974 29.1966 62.1078 29.3675 62.1078 29.6752V56ZM61.3907 25.1282C60.9854 25.5383 60.4968 25.8572 59.9577 26.0636C59.4185 26.2699 58.8413 26.359 58.2647 26.3248C57.1324 26.359 56.0343 25.9145 55.2074 25.1282C54.4212 24.2718 54.0025 23.1429 54.0407 21.9829C54.0064 20.8205 54.4525 19.7265 55.2725 18.9402C56.1029 18.1538 57.201 17.7436 58.3333 17.7436C59.675 17.7436 60.6976 18.1538 61.4559 18.9402C62.2108 19.7607 62.6226 20.8547 62.5882 21.9829C62.6226 23.1453 62.2108 24.2735 61.3907 25.1282Z" fill="#3D144C"/>
</svg>
