<svg width="81" height="80" viewBox="0 0 81 80" fill="none" xmlns="http://www.w3.org/2000/svg">
<path d="M33.2438 27.7619C31.995 27.249 30.645 27.0439 29.2612 27.0781C28.3838 27.0781 27.6075 27.0781 26.9662 27.1123C26.2912 27.0781 25.8188 27.1123 25.5825 27.1465V38.6341C26.055 38.6683 26.4937 38.7025 26.8987 38.7025H28.6875C30.0037 38.7025 31.32 38.4974 32.5687 38.0871C33.6488 37.7794 34.5938 37.1298 35.3363 36.2751C36.045 35.4203 36.3825 34.2579 36.3825 32.7535C36.4162 31.6937 36.1463 30.6338 35.6063 29.7107C35.0435 28.823 34.2159 28.1403 33.2438 27.7619ZM66.6562 0H14.3438C6.4125 0 0 6.496 0 14.5305V65.4695C0 73.504 6.4125 80 14.3438 80H66.6562C74.5875 80 81 73.504 81 65.4695V14.5305C81 6.496 74.5875 0 66.6562 0ZM41.7116 39.8308C40.365 41.7454 38.475 43.1813 36.2812 44.0019C33.9863 44.8566 31.455 45.1643 28.6875 45.1643C27.8775 45.1643 27.3375 45.1643 27 45.1301C26.6625 45.0959 26.19 45.0959 25.5487 45.0959V56.0674C25.5825 56.3067 25.4137 56.5152 25.1775 56.5494H18.63C18.36 56.5494 18.225 56.4093 18.225 56.1015V20.924C18.225 20.6846 18.3263 20.5479 18.5625 20.5479C19.1362 20.5479 19.6763 20.5479 20.4525 20.5137C21.2625 20.4795 22.1063 20.4795 23.0175 20.4453C23.9288 20.4111 24.9075 20.4111 25.9538 20.3769C27 20.3428 28.0125 20.3427 29.025 20.3427C31.7925 20.3427 34.0875 20.6846 35.9775 21.4026C37.665 21.9838 39.2175 22.9412 40.5 24.2062C41.58 25.3002 42.4237 26.6336 42.9637 28.1038C43.4666 29.5397 43.7366 31.0099 43.7366 32.5484C43.74 35.4887 43.065 37.9161 41.7116 39.8308ZM65.6438 53.1305C64.6988 54.4981 63.3791 55.5545 61.8638 56.1768C60.21 56.8913 58.185 57.264 55.7516 57.264C54.2025 57.264 52.6804 57.1306 51.165 56.8229C49.9837 56.6144 48.8025 56.2417 47.7225 55.7289C47.4863 55.5955 47.3141 55.3562 47.3479 55.0827V49.1337C47.3479 49.0346 47.385 48.8944 47.4862 48.826C47.5841 48.7576 47.6888 48.7918 47.79 48.8602C49.1063 49.6466 50.49 50.197 51.975 50.5355C53.2541 50.8774 54.6041 51.0483 55.9575 51.0483C57.24 51.0483 58.1512 50.874 58.7588 50.5663C59.2987 50.3269 59.67 49.7457 59.67 49.1303C59.67 48.6482 59.4 48.2072 58.86 47.7627C58.32 47.3217 57.2096 46.8088 55.5559 46.1524C53.8346 45.537 52.2518 44.7164 50.7634 43.6942C49.7073 42.9279 48.8305 41.9358 48.195 40.7881C47.6586 39.7063 47.3932 38.5075 47.4221 37.2973C47.4221 35.8272 47.8271 34.4254 48.573 33.1604C49.4168 31.7928 50.6621 30.6987 52.1134 30.015C53.6963 29.1978 55.6875 28.8217 58.0837 28.8217C59.4675 28.8217 60.885 28.9243 62.2688 29.1294C63.2813 29.2662 64.26 29.5397 65.1712 29.9158C65.3029 29.95 65.4412 30.0868 65.5088 30.2235C65.5425 30.3603 65.5762 30.497 65.5762 30.6338V36.2067C65.5762 36.3434 65.5088 36.4802 65.4075 36.5486C65.1037 36.6169 64.935 36.6169 64.8 36.5486C63.7875 36.0015 62.7075 35.6255 61.56 35.3861C60.3112 35.1126 59.0625 34.9417 57.78 34.9417C57.105 34.9075 56.3962 35.01 55.7516 35.181C55.3162 35.2836 54.9416 35.5229 54.7054 35.8648C54.5366 36.1383 54.4354 36.4802 54.4354 36.7879C54.4354 37.0956 54.5704 37.4033 54.7762 37.6768C55.08 38.0529 55.4816 38.3606 55.9237 38.5999C56.6966 39.0102 57.51 39.3863 58.3166 39.7282C60.1425 40.3436 61.8975 41.1983 63.5175 42.224C64.6312 42.9386 65.5425 43.8993 66.1804 45.0618C66.7204 46.149 66.9904 47.3525 66.9566 48.5799C66.9938 50.1902 66.5213 51.7937 65.6438 53.1305Z" fill="#3D144C"/>
</svg>
