<svg width="83" height="80" viewBox="0 0 83 80" fill="none" xmlns="http://www.w3.org/2000/svg">
<path d="M34.7008 27.7607C33.4175 27.2576 32.0441 27.0248 30.6667 27.0769C29.4241 27.051 28.181 27.0738 26.9402 27.1453V38.6325L28.2735 38.7009H30.0855C31.4188 38.7009 32.7521 38.4957 34.0171 38.0855C35.1111 37.7778 36.0684 37.1282 36.8205 36.2735C37.5385 35.4188 37.8803 34.2564 37.8803 32.7521C37.9575 31.6889 37.6899 30.629 37.1172 29.7299C36.5444 28.8308 35.6971 28.1402 34.7008 27.7607ZM67.5214 0H14.5299C10.6763 0 6.9806 1.53083 4.25571 4.25571C1.53083 6.9806 0 10.6763 0 14.5299L0 65.4701C0 73.5043 6.49573 80 14.5299 80H67.5214C75.5555 80 82.0513 73.5043 82.0513 65.4701V14.5299C82.0513 6.49573 75.5555 0 67.5214 0ZM43.282 39.8291C41.9145 41.7436 40 43.1795 37.7778 44C35.453 44.8547 32.8889 45.1624 30.0855 45.1624L28.3761 45.1282L26.906 45.094V56.0684C26.9157 56.1249 26.9134 56.1828 26.8993 56.2385C26.8852 56.2941 26.8597 56.3461 26.8242 56.3912C26.7888 56.4363 26.7443 56.4735 26.6936 56.5003C26.6429 56.5271 26.5871 56.5431 26.5299 56.547H19.8974C19.6239 56.547 19.4872 56.4103 19.4872 56.1026V20.9231C19.4872 20.6838 19.5897 20.547 19.8291 20.547L21.7436 20.5128L24.3419 20.4444L27.3162 20.3761L30.4273 20.3419C33.2308 20.3419 35.5555 20.6838 37.4701 21.4017C39.1795 21.9829 40.7521 22.9402 42.0513 24.2051C43.1453 25.2991 44 26.6325 44.547 28.1026C45.0598 29.5385 45.3333 31.0085 45.3333 32.547C45.3333 35.4872 44.6496 37.9145 43.282 39.8291ZM66.5983 29.0598V35.7265C66.5983 36 66.4273 36.1026 66.0513 36.1026C63.7956 36.0206 61.5509 36.4532 59.4872 37.3675C58.8376 37.6752 58.2222 38.0855 57.7436 38.6325V56.0684C57.7436 56.4103 57.6068 56.547 57.2991 56.547H50.5641C50.5012 56.5567 50.4369 56.5536 50.3752 56.5382C50.3134 56.5227 50.2553 56.495 50.2044 56.4568C50.1535 56.4186 50.1106 56.3706 50.0785 56.3157C50.0463 56.2607 50.0254 56.1999 50.0171 56.1367V37.0598L49.9829 34.4957L49.9145 31.8291C49.9145 31.0427 49.8461 30.2906 49.7778 29.5043C49.7661 29.4233 49.7838 29.3409 49.8277 29.2719C49.8716 29.2029 49.9388 29.1519 50.0171 29.1282H56.1026C56.4444 29.1282 56.7179 29.3675 56.7863 29.6752C57.0953 30.6946 57.2452 31.7555 57.2308 32.8205C58.2564 31.6239 59.5214 30.6325 60.9231 29.8803C62.5122 28.9976 64.3018 28.5384 66.1197 28.547C66.359 28.5128 66.5641 28.6838 66.5983 28.9231V29.0598Z" fill="#3D144C"/>
</svg>
